<svg id="Layer_1" data-name="Layer 1" xmlns="http://www.w3.org/2000/svg" viewBox="0 0 388.74 50"><defs><style>.cls-1{fill:#231f20;}.cls-2{fill:#2b71b8;}.cls-3,.cls-4{fill:none;}.cls-3{stroke:#231f20;stroke-miterlimit:10;}.cls-5{fill:#1b75bb;}</style></defs><path class="cls-1" d="M133.37,40.85V22.25L122.94,37.12,112.38,22.21V40.85h-1.63V17l12.19,17.22L135,17V40.85Z"/><path class="cls-1" d="M158.55,41.1a8.61,8.61,0,0,1-3.42-.7,8.83,8.83,0,0,1-2.91-2,8.31,8.31,0,0,1-1.94-2.9,9.45,9.45,0,0,1-.67-3.51V17.33h1.63V32a7.68,7.68,0,0,0,.56,2.9,7.22,7.22,0,0,0,1.58,2.39,7.48,7.48,0,0,0,2.38,1.61,7.3,7.3,0,0,0,5.61,0,7.52,7.52,0,0,0,2.39-1.61,7,7,0,0,0,1.57-2.39,7.5,7.5,0,0,0,.57-2.9V17.33h1.62V32a9.25,9.25,0,0,1-.67,3.51,8.29,8.29,0,0,1-1.93,2.9,9,9,0,0,1-2.9,2A8.61,8.61,0,0,1,158.55,41.1Zm-4.2-28.73a1.3,1.3,0,0,1,1.27,1.27,1.2,1.2,0,0,1-.38.9,1.25,1.25,0,0,1-.89.36,1.22,1.22,0,0,1-.88-.36,1.17,1.17,0,0,1-.38-.9,1.25,1.25,0,0,1,.36-.89A1.2,1.2,0,0,1,154.35,12.37Zm6.7,0a1.22,1.22,0,0,1,.88.38,1.19,1.19,0,0,1,.38.89,1.17,1.17,0,0,1-.38.9,1.24,1.24,0,0,1-.88.36,1.19,1.19,0,0,1-.87-.36,1.22,1.22,0,0,1-.36-.9,1.25,1.25,0,0,1,.36-.89A1.17,1.17,0,0,1,161.05,12.37Z"/><path class="cls-1" d="M182,40.85V17.33h1.63V39.22h13.21v1.63Z"/><path class="cls-1" d="M211,40.85V17.33h1.63V39.22h13.2v1.63Z"/><path class="cls-1" d="M240,40.85V17.33h15.24V19H241.63v9.27h10.6v1.66h-10.6v9.23h13.61v1.7Z"/><path class="cls-1" d="M283.28,40.85,273.51,29h2.89a11.52,11.52,0,0,0,4.35-.69,5.73,5.73,0,0,0,2.13-1.75,4.19,4.19,0,0,0,.91-2.59,4.34,4.34,0,0,0-.76-2.41,5.65,5.65,0,0,0-2.18-1.86A7,7,0,0,0,277.6,19H271V40.85h-1.63V17.33h8.22a9.06,9.06,0,0,1,3.11.52,7.65,7.65,0,0,1,2.53,1.5,6.6,6.6,0,0,1,1.61,2.14,5.82,5.82,0,0,1-.63,6,7,7,0,0,1-2.82,2.27,7.91,7.91,0,0,1-2.19.63,20.23,20.23,0,0,1-2.26.13l8.5,10.31Z"/><path class="cls-2" d="M310.18,40.85V17.33h1.63V39.22H325v1.63Z"/><path class="cls-2" d="M342.28,34.88l-2.79,6h-1.81L348.75,17l10.46,23.81h-1.77l-2.64-6Zm6.4-13.82L343,33.25h11Z"/><path class="cls-2" d="M387.56,30.74a5.54,5.54,0,0,1,1.18,3.49,5.93,5.93,0,0,1-.56,2.48,6.78,6.78,0,0,1-1.61,2.15A8,8,0,0,1,384,40.32a9.14,9.14,0,0,1-3.1.53h-8.65l0-23.52H379a7.34,7.34,0,0,1,5.25,1.84,6.05,6.05,0,0,1,1.39,1.92,5.37,5.37,0,0,1,.49,2.25,5.44,5.44,0,0,1-2.32,4.48l-.32.22c.46.14.85.29,1.19.43A7.13,7.13,0,0,1,387.56,30.74Zm-13.62-3.17h5a10.52,10.52,0,0,0,1.63-.11,6.49,6.49,0,0,0,1.3-.36,5,5,0,0,0,1.79-1.38,3.47,3.47,0,0,0,.85-2.38,3.89,3.89,0,0,0-.63-2.12A4.54,4.54,0,0,0,382,19.61a6.73,6.73,0,0,0-3-.62h-5.1ZM384.18,38.5a5.72,5.72,0,0,0,2.17-1.87,4.23,4.23,0,0,0,.76-2.4,4.06,4.06,0,0,0-.89-2.55A5.52,5.52,0,0,0,384.11,30a11.1,11.1,0,0,0-4.38-.76h-5.79v10h7A7.08,7.08,0,0,0,384.18,38.5Z"/><line class="cls-3" x1="87.98" y1="49.31" x2="87.98" y2="9.16"/><polygon class="cls-2" points="15.57 0 10.57 0 10.57 5.68 15.57 3.49 15.57 0"/><path class="cls-2" d="M23.55,33.74H8.74s0,.07,0,.11l0,.11a.76.76,0,0,1,0,.11s0,.07,0,.11l-.06.12-.07.11-.07.11-.09.11H23.41l1.35-.45Z"/><path class="cls-2" d="M65.2,34.41h0v0Z"/><path d="M7.48,33a1.78,1.78,0,0,0-.69-.34,3.6,3.6,0,0,0-1-.12,5.24,5.24,0,0,0-1.11.12A5.16,5.16,0,0,0,3.65,33a4.39,4.39,0,0,0-.88.5,2.51,2.51,0,0,0-.59.64,1.11,1.11,0,0,0-.16.66.88.88,0,0,0,.29.55,1.8,1.8,0,0,0,.69.37,3.54,3.54,0,0,0,1,.14,5.3,5.3,0,0,0,1.19-.14,6.07,6.07,0,0,0,1.09-.37,4.06,4.06,0,0,0,.87-.55,2.15,2.15,0,0,0,.54-.66A.87.87,0,0,0,7.48,33ZM7,34.18a1.46,1.46,0,0,1-.4.48,2.68,2.68,0,0,1-.64.4,3.76,3.76,0,0,1-.8.27,3.55,3.55,0,0,1-.86.1,2.5,2.5,0,0,1-.76-.1A1.37,1.37,0,0,1,3,35.06a.65.65,0,0,1-.21-.4.74.74,0,0,1,.11-.48,1.7,1.7,0,0,1,.43-.47A2.83,2.83,0,0,1,4,33.34a3.55,3.55,0,0,1,.78-.25,3.83,3.83,0,0,1,.82-.1,2.63,2.63,0,0,1,.73.1,1.24,1.24,0,0,1,.5.25.63.63,0,0,1,.24.37A.73.73,0,0,1,7,34.18Z"/><path d="M63.47,46.19a5.35,5.35,0,0,0-1.16-.81A6.65,6.65,0,0,0,61,44.84a5.7,5.7,0,0,0-1.41-.19,3.76,3.76,0,0,0-1.22.19,2,2,0,0,0-.83.54,1.42,1.42,0,0,0-.38.81,1.82,1.82,0,0,0,.16,1,3.44,3.44,0,0,0,.73,1,5.17,5.17,0,0,0,1.16.89,6.8,6.8,0,0,0,1.44.62,5.46,5.46,0,0,0,1.53.23,3.5,3.5,0,0,0,1.32-.23,2,2,0,0,0,.84-.62,1.51,1.51,0,0,0,.3-.89,2.23,2.23,0,0,0-.29-1A3.76,3.76,0,0,0,63.47,46.19Zm-.14,2.43a1.32,1.32,0,0,1-.62.44,2.44,2.44,0,0,1-1,.17,3.83,3.83,0,0,1-1.11-.17,4.41,4.41,0,0,1-1-.44,4,4,0,0,1-.85-.64,2.61,2.61,0,0,1-.55-.77,1.49,1.49,0,0,1-.13-.75,1.13,1.13,0,0,1,.27-.61,1.55,1.55,0,0,1,.62-.4,2.7,2.7,0,0,1,.9-.14,4.27,4.27,0,0,1,1,.14,5.35,5.35,0,0,1,1,.4,4.16,4.16,0,0,1,.86.61,2.75,2.75,0,0,1,.59.75,1.45,1.45,0,0,1,.2.77A1,1,0,0,1,63.33,48.62Z"/><path d="M24.14,20.18l-.07-.11A1.17,1.17,0,0,1,24,20s0-.07,0-.11,0-.08,0-.11a.56.56,0,0,1,0-.12l.06-.11.09-.1.12-.11H13.14l1.92-7.88h.51V4.5l-5,2.19v4.73h.51L13,19.3h-.1a1.75,1.75,0,0,0-.46,0,2.3,2.3,0,0,0-.28.06,1.17,1.17,0,0,0-.28.11,0,0,0,0,1,0,0L.47,25.4h0a.74.74,0,0,0-.45.51A.21.21,0,0,0,0,26l2.72,6.88a6.85,6.85,0,0,1,.67-.31,6.28,6.28,0,0,1,.73-.25,6.43,6.43,0,0,1,.76-.17,5.18,5.18,0,0,1,.78-.09l-3-6.4L13,20.18Z"/><path class="cls-4" d="M53,19.5a.31.31,0,0,0,0,.24.79.79,0,0,0,.27.23,2.89,2.89,0,0,0,.43.2,4.43,4.43,0,0,0,.55.13,4,4,0,0,0,.6.05,2.73,2.73,0,0,0,.53-.05,1.21,1.21,0,0,0,.37-.13.39.39,0,0,0,.17-.2.26.26,0,0,0-.06-.23.84.84,0,0,0-.28-.24,2.63,2.63,0,0,0-.44-.19,4.28,4.28,0,0,0-.54-.12,3.79,3.79,0,0,0-.58-.05,2.51,2.51,0,0,0-.51.05,1.34,1.34,0,0,0-.37.12A.46.46,0,0,0,53,19.5Z"/><path class="cls-4" d="M25.51,20.17a2.1,2.1,0,0,0,.44.13,3.24,3.24,0,0,0,.56.05,3.36,3.36,0,0,0,.57-.05,2.77,2.77,0,0,0,.48-.13,1.44,1.44,0,0,0,.33-.2.42.42,0,0,0,.13-.23.32.32,0,0,0-.09-.24,1.12,1.12,0,0,0-.29-.19,2.21,2.21,0,0,0-.43-.12,3.12,3.12,0,0,0-.55-.05,3.21,3.21,0,0,0-.55.05,2.93,2.93,0,0,0-.47.12,1.25,1.25,0,0,0-.33.19.35.35,0,0,0-.15.24.26.26,0,0,0,.07.23A.92.92,0,0,0,25.51,20.17Z"/><path d="M52.69,19.16a.56.56,0,0,0-.25.26.35.35,0,0,0,.05.32,1,1,0,0,0,.36.32,3,3,0,0,0,.59.27,5.3,5.3,0,0,0,.76.18,5.44,5.44,0,0,0,.82.07,3.93,3.93,0,0,0,.73-.07,1.6,1.6,0,0,0,.5-.18.53.53,0,0,0,.23-.27.41.41,0,0,0-.09-.32,1.17,1.17,0,0,0-.39-.32,3.38,3.38,0,0,0-.6-.26,4.92,4.92,0,0,0-.73-.16,5,5,0,0,0-.78-.07,3.52,3.52,0,0,0-.7.07A1.84,1.84,0,0,0,52.69,19.16Zm1.34,0a3.79,3.79,0,0,1,.58.05,4.28,4.28,0,0,1,.54.12,2.63,2.63,0,0,1,.44.19.84.84,0,0,1,.28.24.26.26,0,0,1,.06.23.39.39,0,0,1-.17.2,1.21,1.21,0,0,1-.37.13,2.73,2.73,0,0,1-.53.05,4,4,0,0,1-.6-.05,4.43,4.43,0,0,1-.55-.13,2.89,2.89,0,0,1-.43-.2.79.79,0,0,1-.27-.23.31.31,0,0,1,0-.24.46.46,0,0,1,.18-.19,1.34,1.34,0,0,1,.37-.12A2.51,2.51,0,0,1,54,19.14Z"/><path class="cls-2" d="M65.15,34.47h0s0,0,0,0a.15.15,0,0,1-.19.06l-.06,0a.11.11,0,0,1-.08,0h0l-.21-.1a.12.12,0,0,1-.07-.09h0a.14.14,0,0,1-.15-.13v0a.15.15,0,0,1,.11-.15l.14,0h.11a.16.16,0,0,1,.18,0L51.07,25.7l3.26-4.9-.28-.05-.27-.05-.27-.06-.25-.08L49.87,25.4H36.93l0,.07,0,.08s0,.05,0,.07,0,.05,0,.08v.08a.09.09,0,0,1,0,.07v.08S37,26,37,26H50.15l13.38,8.18L60.63,44l.48.12.48.14.47.18.46.2,2.64-10.24S65.15,34.46,65.15,34.47Z"/><path class="cls-4" d="M32.85,26.3a2.63,2.63,0,0,0,.56.18,3.53,3.53,0,0,0,.67.07,3.34,3.34,0,0,0,.66-.07,2.35,2.35,0,0,0,.53-.18A1,1,0,0,0,35.6,26a.46.46,0,0,0,.09-.33.57.57,0,0,0-.16-.32,1.26,1.26,0,0,0-.39-.26A2.63,2.63,0,0,0,34.6,25a3.5,3.5,0,0,0-1.29,0,2.18,2.18,0,0,0-.51.17,1,1,0,0,0-.35.26.51.51,0,0,0-.12.32.61.61,0,0,0,.15.33A1.36,1.36,0,0,0,32.85,26.3Z"/><path class="cls-2" d="M32.2,24.52l.25-.07.26-.07.28-.05-4.76-3.77-.21.08-.23.06-.24.05-.26.05L32,24.61Z"/><path d="M56.55,48c-.08-.12-.16-.24-.23-.37a2.53,2.53,0,0,1-.18-.37,3.16,3.16,0,0,1-.12-.37,1.75,1.75,0,0,1-.07-.36,1.32,1.32,0,0,1,0-.34,1.66,1.66,0,0,1,0-.32H36.62L26.46,34.18l7.33-6.94c-.23,0-.45,0-.66-.07a5.63,5.63,0,0,1-.59-.14,3.52,3.52,0,0,1-.52-.19,2.19,2.19,0,0,1-.43-.24l-8,7.14-.14.89,10.68,13.3h0l0,0h0l.09.07a1.67,1.67,0,0,0,.26.17l0,0a13.09,13.09,0,0,0,1.27.44H57.14c-.11-.11-.22-.23-.32-.35A3.38,3.38,0,0,1,56.55,48Z"/><path d="M32.43,26.52a3.47,3.47,0,0,0,.75.25,4.57,4.57,0,0,0,.93.1,4.2,4.2,0,0,0,.9-.1,3,3,0,0,0,.72-.25,1.44,1.44,0,0,0,.45-.37.62.62,0,0,0,.12-.45.79.79,0,0,0-.23-.44,2,2,0,0,0-.53-.35,4,4,0,0,0-.74-.23,4.77,4.77,0,0,0-.87-.08,4.57,4.57,0,0,0-.86.08,3.59,3.59,0,0,0-.7.23,1.66,1.66,0,0,0-.48.35.63.63,0,0,0-.16.44.69.69,0,0,0,.19.45A1.77,1.77,0,0,0,32.43,26.52Zm0-1.14a1,1,0,0,1,.35-.26,2.18,2.18,0,0,1,.51-.17,3.5,3.5,0,0,1,1.29,0,2.63,2.63,0,0,1,.54.17,1.26,1.26,0,0,1,.39.26.57.57,0,0,1,.16.32.46.46,0,0,1-.09.33,1,1,0,0,1-.33.27,2.35,2.35,0,0,1-.53.18,3.34,3.34,0,0,1-.66.07,3.53,3.53,0,0,1-.67-.07,2.63,2.63,0,0,1-.56-.18,1.36,1.36,0,0,1-.37-.27.61.61,0,0,1-.15-.33A.51.51,0,0,1,32.45,25.38Z"/><path d="M25.11,20.33a2.77,2.77,0,0,0,.61.18,4.47,4.47,0,0,0,.76.07,4.94,4.94,0,0,0,.79-.07,3.59,3.59,0,0,0,.65-.18,1.66,1.66,0,0,0,.44-.27.5.5,0,0,0,.18-.32.45.45,0,0,0-.13-.32,1.26,1.26,0,0,0-.4-.26,2.63,2.63,0,0,0-.59-.16,4.11,4.11,0,0,0-.73-.07,4.44,4.44,0,0,0-.75.07,3.74,3.74,0,0,0-.64.16,1.72,1.72,0,0,0-.45.26.53.53,0,0,0-.21.32.39.39,0,0,0,.09.32A1.28,1.28,0,0,0,25.11,20.33Zm.2-.83a1.25,1.25,0,0,1,.33-.19,2.93,2.93,0,0,1,.47-.12,3.21,3.21,0,0,1,.55-.05,3.12,3.12,0,0,1,.55.05,2.21,2.21,0,0,1,.43.12,1.12,1.12,0,0,1,.29.19.32.32,0,0,1,.09.24.42.42,0,0,1-.13.23,1.44,1.44,0,0,1-.33.2,2.77,2.77,0,0,1-.48.13,3.36,3.36,0,0,1-.57.05A3.24,3.24,0,0,1,26,20.3a2.1,2.1,0,0,1-.44-.13.92.92,0,0,1-.28-.2.26.26,0,0,1-.07-.23A.35.35,0,0,1,25.31,19.5Z"/><path d="M28,18.82l.41.13a2.53,2.53,0,0,1,.33.16l5.06-3.46H45l7,3.46a1.2,1.2,0,0,1,.25-.16,2.06,2.06,0,0,1,.33-.13l.42-.08.48,0L46,15.15h0l0,0-.4-.08a3.21,3.21,0,0,0-.43-.07H32.86a1.61,1.61,0,0,0-.39.12h0l-.06.05h0L27,18.69a4.4,4.4,0,0,1,.51,0Z"/><path class="cls-5" d="M64.63,34.12a.22.22,0,0,0,.07.09l.07,0h0l0,0h0l0-.09h0l-.2-.1Z"/><path class="cls-5" d="M64.65,34h0a.14.14,0,0,0,0,.09h.06l.2.1v0l-.08-.13,0,0-.09,0Z"/><path class="cls-5" d="M64.9,34.23h0s0,0,0,0h0l0,.09.15,0a.13.13,0,0,0-.08-.11h0S64.91,34.24,64.9,34.23Z"/><path class="cls-5" d="M64.9,34.23h0S64.91,34.25,64.9,34.23Z"/><path class="cls-5" d="M64.46,34.19h0l.34.1,0,0h0l-.07,0a.22.22,0,0,1-.07-.09h-.07A.16.16,0,0,0,64.46,34.19Z"/><path class="cls-5" d="M64.56,34.11h.07a.14.14,0,0,1,0-.09l-.19.08v.08A.16.16,0,0,1,64.56,34.11Z"/><path class="cls-5" d="M64.69,34l.09,0a.1.1,0,0,0,0-.06l-.08,0Z"/><path class="cls-5" d="M64.89,34.23h0S64.9,34.24,64.89,34.23Z"/><path class="cls-5" d="M64.46,34.19Z"/><path class="cls-5" d="M64.87,34.22h0Z"/><path class="cls-5" d="M64.46,34.19v-.08l-.11,0,.12,0Z"/><path class="cls-5" d="M64.77,34.26Z"/><path class="cls-5" d="M64.73,34a.1.1,0,0,1,0,.06l.12,0a.4.4,0,0,1,.21.12l0,.07a.5.5,0,0,0-.29-.33h0Z"/><path class="cls-5" d="M65.17,34.29v0Z"/><path class="cls-5" d="M64.9,34.07l-.12,0,0,0,.08.13v0h0a.13.13,0,0,1,.08.11l.18,0a.41.41,0,0,0,0-.11v0h0l0-.07A.4.4,0,0,0,64.9,34.07Z"/><path class="cls-5" d="M65.19,34.4a.23.23,0,0,0,0-.11.41.41,0,0,1,0,.11Z"/><path class="cls-5" d="M64.64,34a.71.71,0,0,0-.2,0v.13l.19-.08Z"/><path class="cls-5" d="M64.45,34.11V34a.71.71,0,0,1,.2,0v0l0,0h-.12l-.16,0a.15.15,0,0,0-.11.16h.06Z"/><path class="cls-5" d="M64.64,34h0l.08,0h0l0,0,0,0Z"/><path class="cls-5" d="M64.89,34.21h0v0Z"/><path class="cls-5" d="M64.67,34l0,0h0l.13-.06h0A.17.17,0,0,0,64.67,34Z"/><path class="cls-5" d="M64.57,34.35l-.11,0h0a.14.14,0,0,0,.07.1l.23.11h0a.31.31,0,0,1-.15-.15Z"/><path class="cls-5" d="M64.75,34.38l-.15,0h0l0,0a.31.31,0,0,0,.15.15l.06-.14Z"/><path class="cls-5" d="M64.85,34.41h0v0s0,0,0,0h0l-.06.14,0,0h.1l0,0A.2.2,0,0,1,64.85,34.41Z"/><path class="cls-5" d="M65.18,34.48h0a.22.22,0,0,1,0-.08l-.18,0a.43.43,0,0,1,0,0Z"/><path class="cls-5" d="M64.83,34.34h0s0,0,0,0h0v0h0s0,0,0,0h0v0h0v0s0,0,0,0l.12,0a.43.43,0,0,0,0,0l-.15,0Z"/><path class="cls-5" d="M64.44,34.32h0a.14.14,0,0,1,0-.11l-.12,0h-.06s0,0,0,0A.17.17,0,0,0,64.44,34.32Z"/><path class="cls-5" d="M65.18,34.48V34.4h0A.22.22,0,0,0,65.18,34.48Z"/><polygon class="cls-5" points="64.44 34.31 64.45 34.31 64.45 34.31 64.44 34.31"/><path class="cls-5" d="M65,34.45a.18.18,0,0,1-.1.09s0,0,.06.05a.18.18,0,0,0,.21-.07l0,0L65,34.4S65,34.44,65,34.45Z"/><path class="cls-5" d="M65,34.4l-.12,0s0,0,0,0v0h0a.2.2,0,0,0,0,.11l0,0a.18.18,0,0,0,.1-.09S65,34.42,65,34.4Z"/><path class="cls-5" d="M64.46,34.32l.11,0,0-.05h-.07V34.2h0a.14.14,0,0,0,0,.11h0Z"/><polygon class="cls-5" points="64.87 34.42 64.86 34.41 64.87 34.41 64.87 34.42"/><polygon class="cls-5" points="64.87 34.42 64.87 34.42 64.87 34.42 64.87 34.42 64.87 34.41 64.87 34.42"/><path class="cls-5" d="M64.87,34.41h0Z"/><path class="cls-5" d="M64.85,34.41v0Z"/><path class="cls-5" d="M64.87,34.42Z"/><polygon class="cls-5" points="64.87 34.42 64.86 34.42 64.87 34.43 64.87 34.42"/><polygon class="cls-5" points="64.87 34.41 64.86 34.41 64.86 34.41 64.87 34.42 64.87 34.41"/><polygon class="cls-5" points="64.87 34.42 64.86 34.41 64.86 34.42 64.87 34.42 64.87 34.42"/><polygon class="cls-5" points="64.87 34.42 64.87 34.42 64.87 34.42 64.87 34.42"/><polygon class="cls-5" points="65.18 34.48 65.18 34.48 65.18 34.48 65.18 34.48"/><path class="cls-5" d="M64.86,34.41v0h0Z"/><path class="cls-5" d="M64.86,34.41Z"/><path class="cls-5" d="M64.87,34.42Z"/><polygon class="cls-5" points="64.85 34.39 64.85 34.39 64.86 34.38 64.85 34.39"/><path class="cls-5" d="M64.84,34.34h0S64.83,34.32,64.84,34.34Z"/><polygon class="cls-5" points="64.86 34.41 64.85 34.4 64.85 34.4 64.86 34.41"/><polygon class="cls-5" points="64.85 34.39 64.85 34.4 64.85 34.4 64.85 34.39"/><path class="cls-5" d="M64.48,34.31h.07l0,0s0,0,0,0,0,0,0,0,.06,0,0,0h.07l-.09,0h0l0,.05h0l.15,0h.06l0,0v0h0l-.34-.1Z"/><path class="cls-5" d="M64.62,34.29h0Z"/><path class="cls-5" d="M64.82,34.3h0S64.83,34.33,64.82,34.3Z"/><path class="cls-5" d="M64.61,34.28h0s0,0,0,0,0,0,0,0,0,0,0,0l0,0,.09,0Z"/><path class="cls-5" d="M64.82,34.39h0s0,0,0,0v0h0l0,0Z"/><path class="cls-5" d="M64.85,34.41h0v0Z"/><path class="cls-5" d="M64.82,34.3s0,0,0,0h0v0l0,0h0Z"/><path class="cls-5" d="M64.45,34.32Z"/><path class="cls-5" d="M64.49,34.32h0Z"/><polygon class="cls-5" points="64.85 34.41 64.86 34.41 64.85 34.41 64.85 34.41"/><path class="cls-5" d="M64.86,34.41h0s0,0,0,0h0Z"/><polygon class="cls-5" points="64.85 34.41 64.85 34.41 64.85 34.41 64.85 34.41 64.85 34.41"/><polygon class="cls-5" points="64.85 34.41 64.85 34.41 64.85 34.41 64.85 34.41"/><path class="cls-5" d="M64.85,34.4v0Z"/><polygon class="cls-5" points="64.85 34.4 64.85 34.4 64.85 34.4 64.85 34.4 64.85 34.4"/><polygon class="cls-5" points="64.85 34.41 64.85 34.41 64.85 34.4 64.85 34.4 64.85 34.41"/></svg>